<?xml version="1.0" encoding="iso-8859-1"?>
<!DOCTYPE svg PUBLIC "-//W3C//DTD SVG 1.1//EN" "http://www.w3.org/Graphics/SVG/1.1/DTD/svg11.dtd">
<svg 
 version="1.1" xmlns="http://www.w3.org/2000/svg" xmlns:xlink="http://www.w3.org/1999/xlink" x="0px" y="0px" width="512px"
	 height="512px" viewBox="0 0 512 512" enable-background="new 0 0 512 512" xml:space="preserve"
><g id="2069a460dcf28295e231f3111e0559c3"><g></g><g fill="#555555"><path display="inline" d="M454.324,171.785l2.021,1.001c0,0,18.979-19.497,0-94.429C442.25,22.702,399.404,0.5,399.404,0.5
		l-39.573,80.542C328.688,65.055,293.415,55.977,256,55.977s-72.688,9.078-103.831,25.065L112.596,0.5
		c0,0-42.846,22.202-56.94,77.857c-18.98,74.932,0,94.429,0,94.429l2.02-1.001c-18.709,33.066-29.438,71.246-29.438,111.953
		C28.238,409.526,130.212,511.5,256,511.5s227.762-101.974,227.762-227.762C483.762,243.031,473.033,204.852,454.324,171.785z
		 M85.179,201.809c0.03-0.097,0.085-0.011,0.156,0.145c2.628,0.308,42.097-19.685,80.525-7.967
		c40.11,12.229,73.396,52.144,67.861,70.298c-5.538,18.157-55.432,32.707-95.539,20.478c-38.427-11.718-51.235-79.176-52.848-82.809
		C85.219,201.942,85.149,201.905,85.179,201.809z M346.089,193.986c38.432-11.718,77.896,8.271,80.528,7.967
		c0.071-0.155,0.126-0.241,0.156-0.145c0.029,0.097-0.041,0.134-0.156,0.145c-1.616,3.633-14.42,71.091-52.848,82.809
		c-40.106,12.229-90-2.32-95.534-20.478C272.696,246.13,305.982,206.216,346.089,193.986z M114.22,409.738
		c-2.231-20.578-1.542-41.716,8.919-48.615c21.33-14.064,132.816-56.94,132.861-56.94s111.53,42.876,132.861,56.94
		c10.461,6.899,11.15,28.037,8.919,48.615C362.989,448.844,312.336,473.54,256,473.54S149.011,448.844,114.22,409.738z
		 M331.847,401.734c0.048-0.063,0.074-0.104,0.074-0.104S331.913,401.679,331.847,401.734z M180.08,401.631
		c0,0,0.029,0.04,0.078,0.107C180.087,401.679,180.08,401.631,180.08,401.631z M331.847,401.734
		c-1.279,1.82-20.859,28.352-75.847,28.352c-54.649,0-74.523-26.498-75.843-28.348c0.396,0.349,3.084,1.075,21.46-5.075
		c8.229-2.758,28.104-11.767,39.199-12.519c13.538-0.916,15.184,7.833,15.184,7.833s1.138-8.652,15.185-7.833
		c11.021,0.645,30.846,9.561,39.009,12.341C328.796,402.81,331.465,402.075,331.847,401.734z"></path></g></g></svg>